<svg xmlns="http://www.w3.org/2000/svg" viewBox="0 0 24 24" fill="none">
  <path
    fill="#1668C2"
    d="M12 1.75a5.13 5.13 0 0 1 4.63 2.92 5.14 5.14 0 0 1 4.1 7.85 5.14 5.14 0 0 1-4.1 7.86A5.13 5.13 0 0 1 8 21.1a5.14 5.14 0 0 1-4.73-7.62 5.14 5.14 0 0 1 4.1-7.85A5.13 5.13 0 0 1 12 1.75Zm0 2.1a3.02 3.02 0 0 0-2.9 2.17l-.2.72-1.8.01a3.03 3.03 0 0 0-2.36 4.92l.46.57-.45.57a3.03 3.03 0 0 0 2.8 4.86l.72-.14.35.65a3.03 3.03 0 0 0 5.35-.02l.34-.65.72.13a3.03 3.03 0 0 0 2.8-4.86l-.45-.57.46-.57a3.03 3.03 0 0 0-2.36-4.92l-.74-.01-.34-.66A3.03 3.03 0 0 0 12 3.85Z"
  />
  <path
    fill="#EF7D22"
    d="m8.35 9.05 1.48-1.48L14.26 12l-4.43 4.43-1.48-1.48L11.3 12 8.35 9.05Z"
  />
</svg>
